<svg xmlns="http://www.w3.org/2000/svg" shape-rendering="geometricPrecision" text-rendering="geometricPrecision" image-rendering="optimizeQuality" fill-rule="evenodd" clip-rule="evenodd" viewBox="0 0 363 511.49"><path d="M46.73 0H303.5c16.34 0 31.21 6.71 41.99 17.48C356.29 28.29 363 43.17 363 59.5v443.53c0 4.67-3.79 8.46-8.46 8.46-2.05 0-3.95-.74-5.41-1.97L181.42 378.99 13.64 509.67c-3.66 2.86-8.97 2.21-11.82-1.45a8.413 8.413 0 01-1.78-5.19L0 46.73c0-12.82 5.25-24.5 13.72-32.98C22.25 5.24 33.92 0 46.73 0zM181.5 62.03c31.14 0 59.37 12.65 79.82 33.09 20.44 20.42 33.09 48.65 33.09 79.82 0 31.17-12.65 59.41-33.08 79.84-20.43 20.43-48.66 33.07-79.83 33.07-31.18 0-59.41-12.64-79.84-33.07-20.42-20.46-33.07-48.7-33.07-79.84 0-31.13 12.64-59.36 33.07-79.8 20.48-20.47 48.7-33.11 79.84-33.11zm-12.23 67.13c0-6.76 5.48-12.24 12.23-12.24s12.23 5.48 12.23 12.24v33.55h33.55c6.75 0 12.23 5.48 12.23 12.23 0 6.76-5.48 12.23-12.23 12.23h-33.55v33.55c0 6.75-5.48 12.23-12.23 12.23s-12.23-5.48-12.23-12.23v-33.55h-33.55c-6.75 0-12.23-5.47-12.23-12.23 0-6.75 5.48-12.23 12.23-12.23h33.55v-33.55z"/></svg>